<svg width="30" height="30" viewBox="0 0 30 30" fill="none" xmlns="http://www.w3.org/2000/svg">
<path d="M10.3125 3.75C8.77031 3.75 7.5 5.02031 7.5 6.5625V23.4375C7.5 24.9797 8.77031 26.25 10.3125 26.25H19.6875C21.2297 26.25 22.5 24.9797 22.5 23.4375V6.5625C22.5 5.02031 21.2297 3.75 19.6875 3.75H10.3125ZM10.3125 5.625H19.6875C20.2078 5.625 20.625 6.04219 20.625 6.5625V23.4375C20.625 23.9578 20.2078 24.375 19.6875 24.375H10.3125C9.79219 24.375 9.375 23.9578 9.375 23.4375V6.5625C9.375 6.04219 9.79219 5.625 10.3125 5.625ZM15 21.5625C14.4844 21.5625 14.0625 21.9844 14.0625 22.5C14.0625 23.0156 14.4844 23.4375 15 23.4375C15.5156 23.4375 15.9375 23.0156 15.9375 22.5C15.9375 21.9844 15.5156 21.5625 15 21.5625Z" fill="#848A7D"/>
</svg>
