<svg width="30" height="30" viewBox="0 0 30 30" fill="none" xmlns="http://www.w3.org/2000/svg">
<path d="M22.7688 3.21429C22.8959 3.21419 23.0212 3.24424 23.1344 3.30198C23.2477 3.35972 23.3456 3.4435 23.4202 3.54644L23.478 3.63965L27.7713 11.6893L27.8173 11.7986L27.8291 11.8393L27.8473 11.9218L27.858 12.0161L27.8559 12.1232L27.858 12.0536C27.8583 12.1626 27.8365 12.2705 27.7938 12.3707L27.7616 12.435L27.7188 12.5057L27.663 12.5797L15.6427 26.4696C15.5399 26.6073 15.3945 26.7071 15.2291 26.7536L15.167 26.7686L15.063 26.7836L14.9998 26.7857L14.8927 26.7782L14.8005 26.7611L14.6902 26.7246L14.6623 26.7118C14.5632 26.6676 14.4748 26.6025 14.403 26.5211L2.32697 12.5636L2.26054 12.4704L2.20912 12.3707L2.17162 12.2636L2.14697 12.1243V11.9872L2.16304 11.8811L2.17376 11.8382L2.20912 11.7364L2.23912 11.6754L6.52483 3.63965C6.58456 3.52765 6.66998 3.43139 6.77408 3.35876C6.87819 3.28612 6.99802 3.23919 7.12376 3.22179L7.23197 3.21429H22.7677H22.7688ZM19.1859 12.8572H10.8127L15.002 23.7429L19.1859 12.8572ZM9.09304 12.8572H4.7034L12.603 21.9836L9.09197 12.8572H9.09304ZM25.2952 12.8572H20.9098L17.403 21.9761L25.2963 12.8572H25.2952ZM10.7409 4.82037H7.71412L4.28554 11.25H9.02554L10.7409 4.82037ZM17.598 4.82037H12.4038L10.6895 11.25H19.3113L17.597 4.82037H17.598ZM22.2866 4.82037H19.2598L20.9752 11.25H25.7141L22.2866 4.82037Z" fill="#848A7D"/>
</svg>
