<svg width="30" height="30" viewBox="0 0 30 30" fill="none" xmlns="http://www.w3.org/2000/svg">
<path d="M27.6855 12.0703H20.1855C20.0566 12.0703 19.9512 12.1758 19.9512 12.3047V13.7109C19.9512 13.8398 20.0566 13.9453 20.1855 13.9453H27.6855C27.8145 13.9453 27.9199 13.8398 27.9199 13.7109V12.3047C27.9199 12.1758 27.8145 12.0703 27.6855 12.0703ZM23.7598 16.0547H20.1855C20.0566 16.0547 19.9512 16.1602 19.9512 16.2891V17.6953C19.9512 17.8242 20.0566 17.9297 20.1855 17.9297H23.7598C23.8887 17.9297 23.9941 17.8242 23.9941 17.6953V16.2891C23.9941 16.1602 23.8887 16.0547 23.7598 16.0547ZM13.9834 9.44824H12.7148C12.5332 9.44824 12.3867 9.59473 12.3867 9.77637V17.042C12.3867 17.1475 12.4365 17.2441 12.5215 17.3057L16.8838 20.4873C17.0303 20.5928 17.2354 20.5635 17.3408 20.417L18.0938 19.3887V19.3857C18.1992 19.2393 18.167 19.0342 18.0205 18.9287L14.3086 16.2451V9.77637C14.3115 9.59473 14.1621 9.44824 13.9834 9.44824Z" fill="#848A7D"/>
<path d="M23.5779 19.7432H21.8845C21.7205 19.7432 21.5652 19.8281 21.4773 19.9688C21.1052 20.5576 20.6717 21.1025 20.1736 21.6006C19.3152 22.459 18.3162 23.1328 17.2058 23.6016C16.0545 24.0879 14.8328 24.334 13.573 24.334C12.3103 24.334 11.0886 24.0879 9.94021 23.6016C8.82985 23.1328 7.83083 22.459 6.97243 21.6006C6.11403 20.7422 5.44021 19.7432 4.97146 18.6328C4.48513 17.4844 4.23903 16.2627 4.23903 15C4.23903 13.7373 4.48513 12.5186 4.97146 11.3672C5.44021 10.2568 6.11403 9.25782 6.97243 8.39942C7.83083 7.54102 8.82985 6.8672 9.94021 6.39845C11.0886 5.91212 12.3133 5.66602 13.573 5.66602C14.8357 5.66602 16.0574 5.91212 17.2058 6.39845C18.3162 6.8672 19.3152 7.54102 20.1736 8.39942C20.6717 8.89747 21.1052 9.44239 21.4773 10.0313C21.5652 10.1719 21.7205 10.2568 21.8845 10.2568H23.5779C23.7801 10.2568 23.909 10.0459 23.8181 9.8672C21.908 6.06739 18.0349 3.59766 13.7107 3.54786C7.37966 3.46876 2.12087 8.65138 2.10915 14.9766C2.09743 21.3135 7.23317 26.4551 13.5701 26.4551C17.95 26.4551 21.8875 23.9766 23.8181 20.1328C23.909 19.9541 23.7771 19.7432 23.5779 19.7432Z" fill="#848A7D"/>
</svg>
